Coordinates
version=1
nRows=25
nColumns=33
inDegrees=yes

Units are S.I. units (second, meters, Newtons, ...)
Angles are in degrees.

endheader
time	ground_thorax_rot_x	ground_thorax_rot_y	ground_thorax_rot_z	ground_thorax_tx	ground_thorax_ty	ground_thorax_tz	clav_prot_r	clav_elev_r	scapula_abduction_r	scapula_elevation_r	scapula_upward_rot_r	scapula_winging_r	shoulder_elv_r	plane_of_elev_r	axial_rot_r	elbow_flexion_r	pro_sup_r	wrist_flex_r	wrist_dev_r	clav_prot_l	clav_elev_l	scapula_abduction_l	scapula_elevation_l	scapula_upward_rot_l	scapula_winging_l	shoulder_elv_l	plane_of_elev_l	axial_rot_l	elbow_flexion_l	pro_sup_l	wrist_flex_l	wrist_dev_l	
5.3300	-90.000000	90.000000	-90.000000	-31.894458	845.678208	-41.042042	29.573596	35.373359	45.000000	45.000000	13.630964	1778.347845	109.250845	29.425339	-45.019363	2518.427726	159.513262	13.945111	16.244779	-45.000000	21.947146	39.296588	-16.586613	45.000000	4425.907072	-4204.114107	20.575464	-158.586783	1790.795212	43.246518	14.143433	-20.979242	
5.3400	-90.000000	90.000000	-90.000000	-28.443259	844.282519	-41.089099	29.507621	35.488102	45.000000	45.000000	13.461721	1777.980073	109.150873	29.299591	-46.027874	2518.434693	159.767490	13.812313	16.278028	-45.000000	22.190668	39.575685	-16.666705	45.000000	4425.998792	-4204.031132	20.352388	-157.617837	1790.833304	43.267802	14.232237	-20.710554	
5.3500	-90.000000	90.000000	-90.000000	-24.935755	842.806848	-41.185771	29.439344	35.602013	45.000000	45.000000	13.287668	1777.594126	109.051161	29.182798	-47.025565	2518.445433	160.055553	13.670374	16.302396	-45.000000	22.426085	39.854385	-16.740865	45.000000	4426.090445	-4203.966000	20.122104	-156.586178	1790.835319	43.331952	14.311470	-20.430917	
5.3600	-90.000000	90.000000	-90.000000	-21.381190	841.250828	-41.340254	29.370191	35.713032	45.000000	45.000000	13.108466	1777.189475	108.952427	29.075622	-48.010664	2518.459816	160.375368	13.520123	16.316284	-45.000000	22.651653	40.128773	-16.809438	45.000000	4426.180177	-4203.920675	19.882977	-155.485238	1790.796398	43.441033	14.381063	-20.143565	
5.3700	-90.000000	90.000000	-90.000000	-17.778575	839.605133	-41.539259	29.298999	35.820450	45.000000	45.000000	12.922974	1776.766357	108.854247	28.979377	-48.980093	2518.479264	160.727383	13.361660	16.319498	-45.000000	22.878195	40.396381	-16.884639	45.000000	4426.281276	-4203.901668	19.644826	-154.343444	1790.717732	43.592527	14.440685	-19.848267	
5.3800	-90.000000	90.000000	-90.000000	-14.120371	837.855454	-41.755432	29.223635	35.925746	45.000000	45.000000	12.737392	1776.325728	108.754681	28.895971	-49.929173	2518.500997	161.114291	13.198999	16.311472	-45.000000	23.120564	40.658849	-16.973293	45.000000	4426.390995	-4203.899647	19.413104	-153.199919	1790.621237	43.774938	14.485938	-19.549050	
5.3900	-90.000000	90.000000	-90.000000	-10.396818	835.986816	-41.956056	29.141062	36.031614	45.000000	45.000000	12.554258	1775.866685	108.649672	28.828102	-50.850751	2518.527923	161.540778	13.034920	16.291100	-45.000000	23.389036	40.918025	-17.084203	45.000000	4426.512424	-4203.905553	19.197205	-152.103958	1790.526213	43.974930	14.511019	-19.245004	
5.4000	-90.000000	90.000000	-90.000000	-6.602403	833.989739	-42.116489	29.047279	36.139659	45.000000	45.000000	12.377964	1775.391519	108.538870	28.774995	-51.741469	2518.557891	162.007504	12.872764	16.260649	-45.000000	23.691398	41.174152	-17.227347	45.000000	4426.650244	-4203.916430	19.002801	-151.089273	1790.445369	44.179496	14.516689	-18.938194	
5.4100	-90.000000	90.000000	-90.000000	-2.737650	831.861652	-42.223642	28.939890	36.251970	45.000000	45.000000	12.209024	1774.900112	108.421486	28.736893	-52.594249	2518.594804	162.513622	12.714138	16.220952	-45.000000	24.026910	41.427458	-17.406610	45.000000	4426.808107	-4203.929779	18.833517	-150.176681	1790.379914	44.379238	14.503254	-18.627110	
5.4200	-90.000000	90.000000	-90.000000	1.189593	829.607745	-42.278251	28.817027	36.368945	45.000000	45.000000	12.049650	1774.394156	108.299899	28.712517	-53.405345	2518.636901	163.052926	12.561663	16.174307	-45.000000	24.393230	41.677538	-17.622203	45.000000	4426.986512	-4203.947903	18.689185	-149.366647	1790.327589	44.568764	14.474885	-18.315067	
5.4300	-90.000000	90.000000	-90.000000	5.166452	827.238334	-42.289497	28.679804	36.491856	45.000000	45.000000	11.900125	1773.871961	108.173484	28.703283	-54.166696	2518.688333	163.620156	12.417746	16.118687	-45.000000	24.785300	41.926624	-17.863254	45.000000	4427.172528	-4203.963053	18.564869	-148.647343	1790.287769	44.746700	14.428400	-18.002919	
5.4400	-90.000000	90.000000	-90.000000	9.178089	824.765865	-42.268821	28.527680	36.619294	45.000000	45.000000	11.758780	1773.336285	108.046587	28.708288	-54.874615	2518.748519	164.204694	12.282945	16.056115	-45.000000	25.199480	42.175948	-18.131917	45.000000	4427.370045	-4203.986618	18.459169	-148.008004	1790.251038	44.915340	14.369890	-17.693981	
5.4500	-90.000000	90.000000	-90.000000	13.210325	822.202336	-42.224276	28.363822	36.752948	45.000000	45.000000	11.628821	1772.786338	107.917038	28.729195	-55.521016	2518.819302	164.800961	12.161243	15.982418	-45.000000	25.644306	42.428382	-18.411027	45.000000	4427.554877	-4204.002567	18.364000	-147.438671	1790.227278	45.073257	14.293686	-17.393954	
5.4600	-90.000000	90.000000	-90.000000	17.249815	819.559340	-42.160082	28.187907	36.890886	45.000000	45.000000	11.511023	1772.224283	107.789533	28.766192	-56.100513	2518.897975	165.398288	12.053552	15.898559	-45.000000	26.111627	42.680695	-18.702188	45.000000	4427.733668	-4204.017780	18.279966	-146.942048	1790.209705	45.221475	14.206863	-17.106690	
5.4700	-90.000000	90.000000	-90.000000	21.283315	816.849081	-42.078112	28.002705	37.033465	45.000000	45.000000	11.407560	1771.649768	107.663924	28.821079	-56.603515	2518.985495	165.988129	11.961818	15.801136	-45.000000	26.602263	42.931723	-18.993202	45.000000	4427.892937	-4204.018302	18.204521	-146.517135	1790.206418	45.356614	14.105394	-16.834855	
5.4800	-90.000000	90.000000	-90.000000	25.297395	814.085239	-41.979134	27.806951	37.177502	45.000000	45.000000	11.311839	1771.067654	107.548505	28.892296	-57.023130	2519.083344	166.554428	11.881040	15.694586	-45.000000	27.105201	43.178127	-19.296656	45.000000	4428.055361	-4204.024242	18.144436	-146.172780	1790.199310	45.478381	14.001609	-16.577102	
5.4900	-90.000000	90.000000	-90.000000	29.278120	811.283748	-41.863617	27.603431	37.322649	45.000000	45.000000	11.223340	1770.480518	107.445082	28.979892	-57.351462	2519.190111	167.083116	11.810510	15.578840	-45.000000	27.624255	43.417706	-19.608021	45.000000	4428.216211	-4204.029978	18.098889	-145.908893	1790.191346	45.581226	13.894359	-16.333523	
5.5000	-90.000000	90.000000	-90.000000	33.210852	808.463318	-41.732150	27.392713	37.466206	45.000000	45.000000	11.138624	1769.892583	107.361391	29.083723	-57.580706	2519.306431	167.556869	11.745687	15.456991	-45.000000	28.149211	43.649275	-19.934793	45.000000	4428.390189	-4204.047430	18.072747	-145.730784	1790.170426	45.662730	13.790118	-16.100308	
5.5100	-90.000000	90.000000	-90.000000	37.080216	805.645500	-41.585536	27.178553	37.606883	45.000000	45.000000	11.054005	1769.307158	107.295555	29.204397	-57.705303	2519.428379	167.961827	11.686705	15.327996	-45.000000	28.682992	43.872952	-20.271045	45.000000	4428.568645	-4204.067678	18.065017	-145.634870	1790.145460	45.717347	13.683868	-15.876541	
5.5200	-90.000000	90.000000	-90.000000	40.870291	802.854223	-41.424862	26.962967	37.743179	45.000000	45.000000	10.965498	1768.729089	107.249535	29.341536	-57.720211	2519.555370	168.286701	11.631623	15.192701	-45.000000	29.223353	44.089995	-20.617602	45.000000	4428.753937	-4204.094519	18.077602	-145.622474	1790.114475	45.742763	13.576827	-15.660379	
5.5300	-90.000000	90.000000	-90.000000	44.564633	800.115102	-41.251644	26.749694	37.873754	45.000000	45.000000	10.872273	1768.162476	107.219955	29.494521	-57.626217	2519.680625	168.525661	11.582851	15.049752	-45.000000	29.772205	44.295311	-20.968719	45.000000	4428.940157	-4204.118935	18.106933	-145.687184	1790.084886	45.736306	13.464886	-15.451977	
5.5400	-90.000000	90.000000	-90.000000	48.146358	797.454616	-41.068215	26.540764	37.996891	45.000000	45.000000	10.775784	1767.611988	107.209955	29.661607	-57.423972	2519.802257	168.676797	11.540181	14.899761	-45.000000	30.323204	44.484212	-21.324297	45.000000	4429.130739	-4204.142838	18.151574	-145.825219	1790.054686	45.698727	13.350149	-15.251528	
5.5500	-90.000000	90.000000	-90.000000	51.598531	794.898890	-40.878067	26.339112	38.110733	45.000000	45.000000	10.674422	1767.082323	107.217796	29.841003	-57.117803	2519.917761	168.742186	11.504145	14.741937	-45.000000	30.870820	44.648679	-21.682369	45.000000	4429.326438	-4204.160600	18.207020	-146.027876	1790.025476	45.631611	13.232012	-15.059841	
5.5600	-90.000000	90.000000	-90.000000	54.904207	792.472849	-40.686233	26.146647	38.213525	45.000000	45.000000	10.566831	1766.576275	107.245387	30.030704	-56.715379	2520.027328	168.730028	11.474034	14.576843	-45.000000	31.406483	44.783043	-22.043310	45.000000	4429.533220	-4204.176316	18.274574	-146.290001	1789.998480	45.538337	13.111240	-14.878139	
5.5700	-90.000000	90.000000	-90.000000	58.046983	790.198884	-40.499279	25.965568	38.304116	45.000000	45.000000	10.456015	1766.098960	107.292246	30.227111	-56.229721	2520.128353	168.651306	11.449873	14.405726	-45.000000	31.921969	44.881049	-22.403991	45.000000	4429.752715	-4204.186855	18.350951	-146.600433	1789.972221	45.423728	12.989000	-14.707680	
